<svg xmlns="http://www.w3.org/2000/svg" xmlns:xlink="http://www.w3.org/1999/xlink" version="1.1" x="0px" y="0px" viewBox="0 0 50 62.5" enable-background="new 0 0 50 50" xml:space="preserve"><path d="M47.458,4.871H2.542C1.14,4.871,0,6.011,0,7.412v26.967c0,1.402,1.14,2.543,2.542,2.543h1.542v5.666  c0,1.401,1.14,2.541,2.542,2.541h18.63c1.401,0,2.542-1.14,2.542-2.541v-5.666h19.661c1.401,0,2.542-1.141,2.542-2.543V7.412  C50,6.011,48.859,4.871,47.458,4.871z M2.542,5.871h44.917C48.309,5.871,49,6.562,49,7.412v2.563H1V7.412  C1,6.562,1.691,5.871,2.542,5.871z M26.797,42.588c0,0.85-0.691,1.541-1.542,1.541H6.625c-0.85,0-1.542-0.691-1.542-1.541v-18.63  c0-0.85,0.692-1.542,1.542-1.542h18.63c0.851,0,1.542,0.691,1.542,1.542V42.588z M27.614,23.026c-0.373-0.941-1.287-1.61-2.359-1.61  h-1.031v-0.61h14.993v2.22H27.614z M27.797,26.723h5.465v2.221h-5.465V26.723z M47.458,35.922H27.797v-5.979h5.965  c0.276,0,0.5-0.224,0.5-0.5v-3.221c0-0.276-0.224-0.5-0.5-0.5h-5.965v-1.697h11.92c0.276,0,0.5-0.224,0.5-0.5v-3.22  c0-0.276-0.224-0.5-0.5-0.5H23.724c-0.276,0-0.5,0.224-0.5,0.5v1.11H6.625c-1.402,0-2.542,1.14-2.542,2.542v11.964H2.542  C1.691,35.922,1,35.229,1,34.379V10.975h48v23.404C49,35.229,48.309,35.922,47.458,35.922z"/><path d="M3.903,8.337h2.722c0.276,0,0.5-0.224,0.5-0.5s-0.224-0.5-0.5-0.5H3.903c-0.276,0-0.5,0.224-0.5,0.5  S3.626,8.337,3.903,8.337z"/><path d="M9.688,8.337h2.722c0.276,0,0.5-0.224,0.5-0.5s-0.224-0.5-0.5-0.5H9.688c-0.276,0-0.5,0.224-0.5,0.5  S9.411,8.337,9.688,8.337z"/><path d="M15.472,8.337h2.722c0.276,0,0.5-0.224,0.5-0.5s-0.224-0.5-0.5-0.5h-2.722c-0.276,0-0.5,0.224-0.5,0.5  S15.195,8.337,15.472,8.337z"/><path d="M45.416,13.888H23.724c-0.276,0-0.5,0.224-0.5,0.5v3.221c0,0.276,0.224,0.5,0.5,0.5h21.692c0.276,0,0.5-0.224,0.5-0.5  v-3.221C45.916,14.112,45.692,13.888,45.416,13.888z M44.916,17.109H24.224v-2.221h20.692V17.109z"/><path d="M23.688,30.231c-0.002-0.007-0.008-0.011-0.011-0.018c-1.223-3.081-4.226-5.268-7.737-5.268  c-1.839,0-3.535,0.607-4.915,1.621c-0.005,0.004-0.012,0.004-0.017,0.008c-0.006,0.004-0.008,0.011-0.014,0.016  c-2.047,1.519-3.381,3.945-3.381,6.684c0,4.591,3.735,8.326,8.327,8.326s8.327-3.735,8.327-8.326c0-1.064-0.208-2.08-0.574-3.017  C23.689,30.248,23.691,30.24,23.688,30.231z M22.553,30.14l-6.113,2.4v-6.569C19.143,26.155,21.443,27.808,22.553,30.14z   M15.44,31.75l-3.425-4.653c1.003-0.641,2.17-1.04,3.425-1.125V31.75z M15.94,40.6c-4.04,0-7.327-3.286-7.327-7.326  c0-2.236,1.01-4.239,2.594-5.584l4.33,5.881c0.007,0.009,0.018,0.013,0.025,0.021c0.024,0.027,0.051,0.051,0.08,0.072  c0.016,0.013,0.029,0.022,0.046,0.033c0.015,0.009,0.027,0.021,0.043,0.027c0.064,0.029,0.133,0.049,0.208,0.049c0,0,0,0,0,0l0,0h0  c0.061,0,0.122-0.011,0.182-0.034l6.803-2.671c0.221,0.696,0.341,1.437,0.341,2.205C23.267,37.313,19.98,40.6,15.94,40.6z"/><text x="0" y="65" fill="#000000" font-size="5px" font-weight="bold" font-family="'Helvetica Neue', Helvetica, Arial-Unicode, Arial, Sans-serif">Created by Abd Majd</text><text x="0" y="70" fill="#000000" font-size="5px" font-weight="bold" font-family="'Helvetica Neue', Helvetica, Arial-Unicode, Arial, Sans-serif">from the Noun Project</text></svg>