<?xml version="1.0" encoding="utf-8"?>
<!-- Generator: Adobe Illustrator 24.3.0, SVG Export Plug-In . SVG Version: 6.00 Build 0)  -->
<svg version="1.1" id="Layer_1" xmlns="http://www.w3.org/2000/svg" xmlns:xlink="http://www.w3.org/1999/xlink" x="0px" y="0px"
	 viewBox="0 0 80 80" enable-background="new 0 0 80 80" xml:space="preserve">
<g>
	<path fill="#1A171B" d="M61.333,33.213c-0.401,0-0.727,0.326-0.727,0.729v28.604h-3.878v-2.182v-6.465v-9.051
		c0-0.4-0.326-0.726-0.727-0.726c-0.402,0-0.728,0.326-0.728,0.726v8.322l-9.212,0.002v-5.738c0-0.4-0.326-0.727-0.728-0.727h-9.939
		v-5.738c0-0.4-0.326-0.727-0.728-0.727h-7.757c-0.402,0-0.728,0.326-0.728,0.727c0,0.402,0.326,0.729,0.728,0.729h7.03v5.01h-9.212
		v-11.07h30.545v5.332c0,0.402,0.326,0.727,0.728,0.727c0.401,0,0.727-0.324,0.727-0.727V34.91c0-0.4-0.326-0.726-0.727-0.726H24
		c-0.401,0-0.728,0.326-0.728,0.726v27.635h-3.878V33.941c0-0.402-0.326-0.729-0.727-0.729c-0.401,0-0.727,0.326-0.727,0.729v29.332
		c0,0.4,0.326,0.727,0.727,0.727H24c0.401,0,0.727-0.326,0.727-0.727V61.09h30.545v2.184c0,0.4,0.326,0.727,0.728,0.727h5.333
		c0.402,0,0.728-0.326,0.728-0.727V33.941C62.06,33.539,61.734,33.213,61.333,33.213z M34.667,49.617
		c-0.401,0-0.727,0.324-0.727,0.727v9.291h-9.212v-5.008h7.03c0.402,0,0.728-0.326,0.728-0.727c0-0.402-0.326-0.729-0.728-0.729
		h-7.03v-5.01h9.939h9.939v5.01h-9.212v-2.828C35.394,49.941,35.068,49.617,34.667,49.617z M55.272,59.634H35.394v-5.008h9.212
		v2.826c0,0.402,0.326,0.729,0.727,0.729c0.402,0,0.728-0.326,0.728-0.729v-2.826l9.212-0.002V59.634z"/>
	<path fill="#1A171B" d="M63.634,29.429L40.361,16.095c-0.224-0.127-0.499-0.127-0.723,0l-12.317,7.057
		c-0.348,0.201-0.469,0.645-0.27,0.994c0.2,0.348,0.646,0.469,0.993,0.27L40,17.564l22.911,13.129
		c0.114,0.064,0.239,0.096,0.361,0.096c0.252,0,0.497-0.131,0.632-0.365C64.103,30.074,63.983,29.631,63.634,29.429z"/>
	<path fill="#1A171B" d="M24.631,25.533c-0.2-0.35-0.644-0.469-0.993-0.27l-7.273,4.166c-0.348,0.201-0.468,0.645-0.269,0.994
		c0.134,0.234,0.38,0.365,0.631,0.365c0.123,0,0.247-0.031,0.361-0.096l7.273-4.168C24.71,26.326,24.831,25.881,24.631,25.533z"/>
	<path fill="#1A171B" d="M45.818,28.226c0.402,0,0.728-0.326,0.728-0.729V24.59c0-0.4-0.326-0.727-0.728-0.727H34.182
		c-0.401,0-0.727,0.326-0.727,0.727v5.818c0,0.402,0.326,0.729,0.727,0.729h11.636c0.402,0,0.728-0.326,0.728-0.729
		c0-0.4-0.326-0.727-0.728-0.727h-5.091v-4.363h4.364v2.18C45.091,27.9,45.417,28.226,45.818,28.226z M39.272,29.681h-4.363v-4.363
		h4.363V29.681z"/>
</g>
</svg>
